<svg id="visual" viewBox="0 0 1920 1080" width="1920" height="1080" xmlns="http://www.w3.org/2000/svg" xmlns:xlink="http://www.w3.org/1999/xlink" version="1.1"><path d="M231 0L231.3 30C231.7 60 232.3 120 225 180C217.7 240 202.3 300 212.5 360C222.7 420 258.3 480 244 540C229.7 600 165.3 660 144.5 720C123.7 780 146.3 840 163.5 900C180.7 960 192.3 1020 198.2 1050L204 1080L0 1080L0 1050C0 1020 0 960 0 900C0 840 0 780 0 720C0 660 0 600 0 540C0 480 0 420 0 360C0 300 0 240 0 180C0 120 0 60 0 30L0 0Z" fill="#F47799" stroke-linecap="round" stroke-linejoin="miter"></path></svg>