<svg id="visual" viewBox="0 0 1920 1080" width="1920" height="1080" xmlns="http://www.w3.org/2000/svg" xmlns:xlink="http://www.w3.org/1999/xlink" version="1.1"><path d="M0 575L45.7 606.2C91.3 637.3 182.7 699.7 274.2 726.7C365.7 753.7 457.3 745.3 548.8 706.8C640.3 668.3 731.7 599.7 823 569.3C914.3 539 1005.7 547 1097 579C1188.3 611 1279.7 667 1371.2 696.8C1462.7 726.7 1554.3 730.3 1645.8 716.5C1737.3 702.7 1828.7 671.3 1874.3 655.7L1920 640L1920 1081L1874.3 1081C1828.7 1081 1737.3 1081 1645.8 1081C1554.3 1081 1462.7 1081 1371.2 1081C1279.7 1081 1188.3 1081 1097 1081C1005.7 1081 914.3 1081 823 1081C731.7 1081 640.3 1081 548.8 1081C457.3 1081 365.7 1081 274.2 1081C182.7 1081 91.3 1081 45.7 1081L0 1081Z" fill="#F47799" stroke-linecap="round" stroke-linejoin="miter"></path></svg>